<?xml version="1.0" encoding="UTF-8" standalone="no"?>
<svg
   xmlns:dc="http://purl.org/dc/elements/1.1/"
   xmlns:cc="http://creativecommons.org/ns#"
   xmlns:rdf="http://www.w3.org/1999/02/22-rdf-syntax-ns#"
   xmlns:svg="http://www.w3.org/2000/svg"
   xmlns="http://www.w3.org/2000/svg"
   xmlns:sodipodi="http://sodipodi.sourceforge.net/DTD/sodipodi-0.dtd"
   xmlns:inkscape="http://www.inkscape.org/namespaces/inkscape"
   version="1.1"
   id="svg2"
   xml:space="preserve"
   width="666.66669"
   height="496.81332"
   viewBox="0 0 666.66669 496.81332"
   sodipodi:docname="3293464.eps"><metadata
     id="metadata8"><rdf:RDF><cc:Work
         rdf:about=""><dc:format>image/svg+xml</dc:format><dc:type
           rdf:resource="http://purl.org/dc/dcmitype/StillImage" /></cc:Work></rdf:RDF></metadata><defs
     id="defs6" /><sodipodi:namedview
     pagecolor="#ffffff"
     bordercolor="#666666"
     borderopacity="1"
     objecttolerance="10"
     gridtolerance="10"
     guidetolerance="10"
     inkscape:pageopacity="0"
     inkscape:pageshadow="2"
     inkscape:window-width="640"
     inkscape:window-height="480"
     id="namedview4" /><g
     id="g10"
     inkscape:groupmode="layer"
     inkscape:label="ink_ext_XXXXXX"
     transform="matrix(1.3333333,0,0,-1.3333333,0,496.81333)"><g
       id="g12"
       transform="scale(0.1)"><path
         d="M 5000,449.129 H 0 v 2.5 h 5000 v -2.5"
         style="fill:#e7e8e5;fill-opacity:1;fill-rule:nonzero;stroke:none"
         id="path14" /><path
         d="m 2902.08,381.031 h 254.59 v 2.5 h -254.59 v -2.5"
         style="fill:#e7e8e5;fill-opacity:1;fill-rule:nonzero;stroke:none"
         id="path16" /><path
         d="m 3951.11,326.922 h 603.33 v 2.5 h -603.33 v -2.5"
         style="fill:#e7e8e5;fill-opacity:1;fill-rule:nonzero;stroke:none"
         id="path18" /><path
         d="m 2224.59,379.781 h 623.33 v 2.5 h -623.33 v -2.5"
         style="fill:#e7e8e5;fill-opacity:1;fill-rule:nonzero;stroke:none"
         id="path20" /><path
         d="m 1690,304.98 h 130.41 v 2.5 H 1690 v -2.5"
         style="fill:#e7e8e5;fill-opacity:1;fill-rule:nonzero;stroke:none"
         id="path22" /><path
         d="m 1947.08,304.98 h 593.76 v 2.5 h -593.76 v -2.5"
         style="fill:#e7e8e5;fill-opacity:1;fill-rule:nonzero;stroke:none"
         id="path24" /><path
         d="m 524.59,347.199 h 384.535 v 2.5 H 524.59 v -2.5"
         style="fill:#e7e8e5;fill-opacity:1;fill-rule:nonzero;stroke:none"
         id="path26" /><path
         d="m 439.152,3723.59 c -30.101,0 -54.582,-24.48 -54.582,-54.57 V 954.699 c 0,-30.097 24.481,-54.578 54.582,-54.578 H 2370.14 c 30.08,0 54.57,24.481 54.57,54.578 V 3669.02 c 0,30.09 -24.49,54.57 -54.57,54.57 H 439.152 M 2370.14,897.621 H 439.152 c -31.476,0 -57.082,25.598 -57.082,57.078 V 3669.02 c 0,31.46 25.606,57.07 57.082,57.07 H 2370.14 c 31.46,0 57.07,-25.61 57.07,-57.07 V 954.699 c 0,-31.48 -25.61,-57.078 -57.07,-57.078"
         style="fill:#e7e8e5;fill-opacity:1;fill-rule:nonzero;stroke:none"
         id="path28" /><path
         d="m 2602.12,3723.59 c -30.09,0 -54.57,-24.48 -54.57,-54.57 V 954.699 c 0,-30.097 24.48,-54.578 54.57,-54.578 h 1930.99 c 30.09,0 54.58,24.481 54.58,54.578 V 3669.02 c 0,30.09 -24.49,54.57 -54.58,54.57 H 2602.12 M 4533.11,897.621 H 2602.12 c -31.47,0 -57.07,25.598 -57.07,57.078 V 3669.02 c 0,31.46 25.6,57.07 57.07,57.07 h 1930.99 c 31.47,0 57.08,-25.61 57.08,-57.07 V 954.699 c 0,-31.48 -25.61,-57.078 -57.08,-57.078"
         style="fill:#e7e8e5;fill-opacity:1;fill-rule:nonzero;stroke:none"
         id="path30" /><path
         d="m 1959.62,1318.95 h -664.01 l -40.31,465 h 664.01 l 40.31,-465"
         style="fill:#e2e2e0;fill-opacity:1;fill-rule:nonzero;stroke:none"
         id="path32" /><path
         d="m 1994.01,1318.95 h -664 l -40.31,465 h 664 l 40.31,-465"
         style="fill:#ededeb;fill-opacity:1;fill-rule:nonzero;stroke:none"
         id="path34" /><path
         d="m 1420.77,1418.8 -22.14,265.3 h 464.29 l 22.14,-265.3 h -464.29"
         style="fill:#ffffff;fill-opacity:1;fill-rule:nonzero;stroke:none"
         id="path36" /><path
         d="m 2030.99,451.648 h 77.9102 v 867.301 H 2030.99 Z"
         style="fill:#e2e2e0;fill-opacity:1;fill-rule:nonzero;stroke:none"
         id="path38" /><path
         d="m 2079.38,451.648 h 54.1016 v 867.301 H 2079.38 Z"
         style="fill:#ededeb;fill-opacity:1;fill-rule:nonzero;stroke:none"
         id="path40" /><path
         d="m 1379.39,1223.22 h 754.09 v 95.7305 h -754.09 z"
         style="fill:#ededeb;fill-opacity:1;fill-rule:nonzero;stroke:none"
         id="path42" /><path
         d="m 1328.15,451.648 h 77.9023 v 771.57 H 1328.15 Z"
         style="fill:#e2e2e0;fill-opacity:1;fill-rule:nonzero;stroke:none"
         id="path44" /><path
         d="m 1376.53,451.648 h 54.1094 v 771.57 H 1376.53 Z"
         style="fill:#ededeb;fill-opacity:1;fill-rule:nonzero;stroke:none"
         id="path46" /><path
         d="m 851.48,451.648 h -77.91 v 771.572 h 77.91 V 451.648"
         style="fill:#e2e2e0;fill-opacity:1;fill-rule:nonzero;stroke:none"
         id="path48" /><path
         d="m 876.063,451.648 h -54.106 v 771.572 h 54.106 V 451.648"
         style="fill:#ededeb;fill-opacity:1;fill-rule:nonzero;stroke:none"
         id="path50" /><path
         d="m 1537.95,451.648 h 77.9102 v 771.57 H 1537.95 Z"
         style="fill:#e2e2e0;fill-opacity:1;fill-rule:nonzero;stroke:none"
         id="path52" /><path
         d="m 1586.34,451.648 h 54.1094 v 771.57 H 1586.34 Z"
         style="fill:#ededeb;fill-opacity:1;fill-rule:nonzero;stroke:none"
         id="path54" /><path
         d="m 773.57,1223.22 h 605.82 v 95.7305 H 773.57 Z"
         style="fill:#e2e2e0;fill-opacity:1;fill-rule:nonzero;stroke:none"
         id="path56" /><path
         d="M 1295.08,2176.93 H 3638.39 V 3481.48 H 1295.08 Z"
         style="fill:#dadbd8;fill-opacity:1;fill-rule:nonzero;stroke:none"
         id="path58" /><path
         d="M 1306.91,2176.93 H 3767.07 V 3481.48 H 1306.91 Z"
         style="fill:#f3f2f1;fill-opacity:1;fill-rule:nonzero;stroke:none"
         id="path60" /><path
         d="M 1347.11,2217.11 H 3726.87 V 3441.29 H 1347.11 Z"
         style="fill:#ffffff;fill-opacity:1;fill-rule:nonzero;stroke:none"
         id="path62" /><path
         d="m 2310.65,2217.11 449.31,1224.18 h -741.5 l -449.3,-1224.18 h 741.49"
         style="fill:#f3f2f1;fill-opacity:1;fill-rule:nonzero;stroke:none"
         id="path64" /><path
         d="m 3024.4,2217.11 449.31,1224.18 H 2914.35 L 2465.04,2217.11 h 559.36"
         style="fill:#f3f2f1;fill-opacity:1;fill-rule:nonzero;stroke:none"
         id="path66" /><path
         d="M 4381.11,451.629 H 4181.92 V 1697.58 h 199.19 V 451.629"
         style="fill:#e2e2e0;fill-opacity:1;fill-rule:nonzero;stroke:none"
         id="path68" /><path
         d="m 4328.74,451.629 h 52.37 v 95.941 h -107.29 l 54.92,-95.941"
         style="fill:#fafaf9;fill-opacity:1;fill-rule:nonzero;stroke:none"
         id="path70" /><path
         d="m 2345.35,451.629 h 199.188 v 1245.95 H 2345.35 Z"
         style="fill:#e2e2e0;fill-opacity:1;fill-rule:nonzero;stroke:none"
         id="path72" /><path
         d="M 2498.83,477.52 H 4381.11 V 1697.58 H 2498.83 Z"
         style="fill:#fafaf9;fill-opacity:1;fill-rule:nonzero;stroke:none"
         id="path74" /><path
         d="m 2544.46,1313.92 h 1791.02 v 324.59 H 2544.46 v -324.59 m 1801.02,-10 H 2534.46 v 344.59 h 1811.02 v -344.59"
         style="fill:#e2e2e0;fill-opacity:1;fill-rule:nonzero;stroke:none"
         id="path76" /><path
         d="m 2761.41,1595.36 c 33.83,-66.31 79.84,-104.15 127.04,-104.15 h 1138.22 c 47.2,0 93.21,37.84 127.05,104.15 H 2761.41 M 4026.67,1481.21 H 2888.45 c -52.86,0 -103.75,42.63 -139.6,116.97 l -3.46,7.18 h 1424.35 l -3.46,-7.18 c -35.85,-74.34 -86.74,-116.97 -139.61,-116.97"
         style="fill:#e2e2e0;fill-opacity:1;fill-rule:nonzero;stroke:none"
         id="path78" /><path
         d="m 2551.21,451.629 h -52.38 v 95.941 h 107.29 l -54.91,-95.941"
         style="fill:#fafaf9;fill-opacity:1;fill-rule:nonzero;stroke:none"
         id="path80" /><path
         d="M 2544.46,925.262 H 4335.48 V 1249.85 H 2544.46 V 925.262 m 1801.02,-10 H 2534.46 V 1259.85 H 4345.48 V 915.262"
         style="fill:#e2e2e0;fill-opacity:1;fill-rule:nonzero;stroke:none"
         id="path82" /><path
         d="m 2761.41,1206.7 c 33.83,-66.31 79.84,-104.16 127.04,-104.16 h 1138.22 c 47.21,0 93.21,37.85 127.05,104.16 z M 4026.67,1092.54 H 2888.45 c -52.86,0 -103.75,42.64 -139.6,116.98 l -3.46,7.18 h 1424.35 l -3.46,-7.18 c -35.85,-74.34 -86.74,-116.98 -139.61,-116.98"
         style="fill:#e2e2e0;fill-opacity:1;fill-rule:nonzero;stroke:none"
         id="path84" /><path
         d="M 2544.46,536.59 H 4335.48 V 861.18 H 2544.46 V 536.59 m 1801.02,-10 H 2534.46 V 871.18 H 4345.48 V 526.59"
         style="fill:#e2e2e0;fill-opacity:1;fill-rule:nonzero;stroke:none"
         id="path86" /><path
         d="m 2761.41,818.031 c 33.83,-66.312 79.84,-104.152 127.04,-104.152 h 1138.22 c 47.21,0 93.21,37.84 127.05,104.152 z M 4026.67,703.879 H 2888.45 c -52.86,0 -103.75,42.641 -139.6,116.98 l -3.46,7.172 h 1424.35 l -3.46,-7.172 c -35.85,-74.339 -86.74,-116.98 -139.61,-116.98"
         style="fill:#e2e2e0;fill-opacity:1;fill-rule:nonzero;stroke:none"
         id="path88" /><path
         d="m 1209.83,1532.78 v -24.18 h -15.48 l -12.78,-189.65 H 993.223 l -12.77,189.65 h -15.48 v 24.18 h 244.857"
         style="fill:#e2e2e0;fill-opacity:1;fill-rule:nonzero;stroke:none"
         id="path90" /><path
         d="m 1147.84,2003.51 c -15.49,112.97 -167.945,145.24 -361.422,149.38 -184.109,3.93 -243.078,69.07 -243.078,69.07 0,0 0.578,-263.79 265.871,-359.3 251.909,-90.69 354.139,27.68 338.629,140.85"
         style="fill:#e2e2e0;fill-opacity:1;fill-rule:nonzero;stroke:none"
         id="path92" /><path
         d="m 1053.78,1747.37 c 3.24,46.47 77.43,131.86 255.88,93.05 129.04,-28.07 177.01,38.81 177.01,38.81 0,0 -11.95,-188.78 -206.02,-245.55 -184.27,-53.9 -232.54,31.98 -226.87,113.69"
         style="fill:#e2e2e0;fill-opacity:1;fill-rule:nonzero;stroke:none"
         id="path94" /><path
         d="m 1094.5,1461.58 c 1.95,0 3.9,0.82 5.26,2.43 12.94,15.29 2.35,51.91 -12.29,102.59 -18.8,65.03 -42.19,145.97 -22.38,204.75 11.18,33.18 25.02,62.43 38.39,90.72 28.01,59.24 52.2,110.4 32.03,163.83 -1.35,3.55 -5.31,5.35 -8.87,4 -3.55,-1.34 -5.35,-5.31 -4.01,-8.86 18.11,-47.96 -3.82,-94.35 -31.59,-153.09 -12.92,-27.31 -27.55,-58.27 -38.99,-92.21 -21.19,-62.85 2.86,-146.09 22.19,-212.97 11.4,-39.43 23.19,-80.21 15.01,-89.86 -2.45,-2.91 -2.09,-7.25 0.81,-9.71 1.29,-1.09 2.87,-1.62 4.44,-1.62"
         style="fill:#e2e2e0;fill-opacity:1;fill-rule:nonzero;stroke:none"
         id="path96" /><path
         d="M 4438.89,113.238 C 4438.89,50.6992 3570.83,0 2500,0 1429.18,0 561.109,50.6992 561.109,113.238 c 0,62.532 868.071,113.231 1938.891,113.231 1070.83,0 1938.89,-50.699 1938.89,-113.231"
         style="fill:#f3f2f1;fill-opacity:1;fill-rule:nonzero;stroke:none"
         id="path98" /><path
         d="m 2499.6,665.141 h -1420 L 1001.88,2948.81 H 2421.87 L 2499.6,665.141"
         style="fill:#406fbf;fill-opacity:1;fill-rule:nonzero;stroke:none"
         id="path100" /><path
         d="m 2570.47,736 h -1420 l -77.73,2283.67 h 1420 L 2570.47,736"
         style="fill:#406fbf;fill-opacity:1;fill-rule:nonzero;stroke:none"
         id="path102" /><path
         d="m 2570.47,736 h -1420 l -75.32,2212.81 -2.41,70.86 h 1420 L 2570.47,736 m -779.03,2028.12 c -220.6,0 -393.34,-178.84 -385.84,-399.44 7.51,-220.6 192.43,-399.43 413.03,-399.43 220.6,0 393.35,178.83 385.84,399.43 -7.51,220.6 -192.43,399.44 -413.03,399.44"
         style="fill:#6d97d6;fill-opacity:1;fill-rule:nonzero;stroke:none"
         id="path104" /><path
         d="m 2204.47,2364.68 c 7.51,-220.6 -165.24,-399.43 -385.84,-399.43 -220.6,0 -405.52,178.83 -413.03,399.43 -7.5,220.6 165.24,399.44 385.84,399.44 220.6,0 405.52,-178.84 413.03,-399.44"
         style="fill:#406fbf;fill-opacity:1;fill-rule:nonzero;stroke:none"
         id="path106" /><path
         d="m 2134.69,2364.73 c 1.94,-56.94 -10.69,-110.39 -34.5,-157.03 -52.1,-102.75 -158.62,-172.63 -283.94,-172.63 -125.32,0 -236.59,69.88 -295.7,172.63 -26.98,46.64 -43.24,100.09 -45.18,157.03 -6.19,182.09 136.34,329.66 318.44,329.66 182.09,0 334.68,-147.57 340.88,-329.66"
         style="fill:#ffffff;fill-opacity:1;fill-rule:nonzero;stroke:none"
         id="path108" /><path
         d="m 1816.25,2035.07 c -125.32,0 -236.59,69.88 -295.7,172.63 81.11,55.44 179.61,87.81 286.83,87.81 107.23,0 207.93,-32.37 292.81,-87.81 -52.1,-102.75 -158.62,-172.63 -283.94,-172.63"
         style="fill:#7da6dd;fill-opacity:1;fill-rule:nonzero;stroke:none"
         id="path110" /><path
         d="m 1806.19,2330.66 c -81.1,0 -149.08,65.75 -151.84,146.85 -2.76,81.1 60.75,146.84 141.85,146.84 81.09,0 149.08,-65.74 151.84,-146.84 2.76,-81.1 -60.75,-146.85 -141.85,-146.85"
         style="fill:#7da6dd;fill-opacity:1;fill-rule:nonzero;stroke:none"
         id="path112" /><path
         d="M 2285.24,1563.01 H 1379.4 l -6.13,180 h 905.85 l 6.12,-180"
         style="fill:#ffffff;fill-opacity:1;fill-rule:nonzero;stroke:none"
         id="path114" /><path
         d="m 2296.2,1241.28 h -905.85 l -6.13,180 h 905.85 l 6.13,-180"
         style="fill:#ffffff;fill-opacity:1;fill-rule:nonzero;stroke:none"
         id="path116" /><path
         d="m 1883.86,1248.34 -39.52,-5.37 -3.98,47.21 c -8.41,3.71 -14.5,11.17 -16.22,19.96 -2.81,14.3 6.85,27.55 21.53,29.55 14.62,1.99 28.84,-8.02 31.64,-22.32 1.72,-8.79 -1.21,-17.47 -7.76,-23.22 z m 62.72,148.19 -218.28,-29.68 c -8.97,-1.21 -14.87,-9.39 -13.17,-18.06 l 28.66,-146.28 c 1.71,-8.74 10.42,-14.87 19.38,-13.65 l 218.29,29.69 c 8.97,1.21 14.88,9.33 13.17,18.07 l -28.66,146.28 c -1.7,8.67 -10.42,14.85 -19.39,13.63"
         style="fill:#406fbf;fill-opacity:1;fill-rule:nonzero;stroke:none"
         id="path118" /><path
         d="m 1925.03,1404.38 v 0 c -7.97,-1.09 -15.67,4.33 -17.19,12.11 l -2.81,14.31 c -7.73,39.42 -45.41,69.16 -86.19,65.61 -43.61,-3.8 -72.83,-42.3 -64.68,-83.94 l 3.22,-16.44 c 1.53,-7.78 -3.7,-14.95 -11.68,-16.04 -7.98,-1.08 -15.68,4.34 -17.2,12.11 l -2.73,13.96 c -10.77,54.92 23.81,107.71 79.74,117.45 58.8,10.23 116.78,-29.43 127.99,-86.65 l 3.22,-16.45 c 1.52,-7.77 -3.71,-14.95 -11.69,-16.03"
         style="fill:#406fbf;fill-opacity:1;fill-rule:nonzero;stroke:none"
         id="path120" /><path
         d="m 2146.67,989.23 h -589.64 l -3.98,117.16 h 589.63 l 3.99,-117.16"
         style="fill:#406fbf;fill-opacity:1;fill-rule:nonzero;stroke:none"
         id="path122" /><path
         d="m 1862.18,1653.01 c 0.62,-18.18 -13.62,-32.93 -31.8,-32.93 -18.18,0 -33.43,14.75 -34.05,32.93 -0.62,18.18 13.63,32.92 31.8,32.92 18.19,0 33.43,-14.74 34.05,-32.92"
         style="fill:#17282f;fill-opacity:1;fill-rule:nonzero;stroke:none"
         id="path124" /><path
         d="m 1720.45,1653.01 c 0.62,-18.18 -13.62,-32.93 -31.8,-32.93 -18.19,0 -33.43,14.75 -34.05,32.93 -0.62,18.18 13.62,32.92 31.81,32.92 18.18,0 33.42,-14.74 34.04,-32.92"
         style="fill:#17282f;fill-opacity:1;fill-rule:nonzero;stroke:none"
         id="path126" /><path
         d="m 1578.72,1653.01 c 0.62,-18.18 -13.62,-32.93 -31.81,-32.93 -18.18,0 -33.42,14.75 -34.04,32.93 -0.62,18.18 13.62,32.92 31.8,32.92 18.19,0 33.43,-14.74 34.05,-32.92"
         style="fill:#17282f;fill-opacity:1;fill-rule:nonzero;stroke:none"
         id="path128" /><path
         d="m 2003.91,1653.01 c 0.62,-18.18 -13.62,-32.93 -31.8,-32.93 -18.18,0 -33.42,14.75 -34.04,32.93 -0.62,18.18 13.61,32.92 31.8,32.92 18.18,0 33.43,-14.74 34.04,-32.92"
         style="fill:#17282f;fill-opacity:1;fill-rule:nonzero;stroke:none"
         id="path130" /><path
         d="m 2145.64,1653.01 c 0.62,-18.18 -13.61,-32.93 -31.8,-32.93 -18.18,0 -33.42,14.75 -34.04,32.93 -0.62,18.18 13.62,32.92 31.8,32.92 18.19,0 33.42,-14.74 34.04,-32.92"
         style="fill:#17282f;fill-opacity:1;fill-rule:nonzero;stroke:none"
         id="path132" /><path
         d="m 3339.1,2532.81 c 13.34,-21.35 24.36,-41.84 35.79,-63.11 11.39,-21.07 21.7,-42.73 31.8,-64.57 19.89,-43.82 37.69,-89.04 51,-137.31 1.77,-5.92 3.14,-12.19 4.62,-18.35 l 2.19,-9.25 1.09,-4.62 1.29,-7.63 c 2.87,-20.31 0.35,-36.89 -3.12,-51.51 -7.17,-29.13 -18.73,-52.38 -31.11,-74.56 -25.3,-43.91 -54.82,-81.31 -88.86,-116.73 l -42.11,31.88 c 20.77,39.4 41.28,80.67 56.37,120.37 7.31,19.73 13.46,39.83 15.26,56.32 0.88,8.1 0.29,15.07 -0.82,17.67 l -3.96,12.22 c -1.64,5.01 -3.1,10 -5.08,15.06 -14.41,40.35 -32.74,80.88 -52.69,120.84 -19.68,39.81 -41.47,80.34 -62.93,118.17 l 91.27,55.11"
         style="fill:#f46b74;fill-opacity:1;fill-rule:nonzero;stroke:none"
         id="path134" /><path
         d="m 3312.36,2031.36 -45.91,-24.37 52.78,-61.8 c 0,0 32.95,22.29 34.43,56.32 l -41.3,29.85"
         style="fill:#f46b74;fill-opacity:1;fill-rule:nonzero;stroke:none"
         id="path136" /><path
         d="m 3204.66,1968.89 56.56,-44.88 58.01,21.18 -52.78,61.8 -61.79,-38.1"
         style="fill:#f46b74;fill-opacity:1;fill-rule:nonzero;stroke:none"
         id="path138" /><path
         d="m 3011.51,2859.97 c -1.13,-5.56 -4.99,-9.47 -8.63,-8.73 -3.63,0.74 -5.66,5.85 -4.53,11.41 1.13,5.55 4.99,9.47 8.63,8.73 3.63,-0.74 5.66,-5.85 4.53,-11.41"
         style="fill:#17282f;fill-opacity:1;fill-rule:nonzero;stroke:none"
         id="path140" /><path
         d="m 3007.03,2850.4 c 0,0 -19.16,-29.51 -36.22,-42.15 7.96,-11.18 25.54,-10.38 25.54,-10.38 l 10.68,52.53"
         style="fill:#f14358;fill-opacity:1;fill-rule:nonzero;stroke:none"
         id="path142" /><path
         d="m 2989.01,2654.23 0.43,65.55 86.8,-10.49 c 0,0 -1.49,-56.36 -49.96,-72.93 l -37.27,17.87"
         style="fill:#f46b74;fill-opacity:1;fill-rule:nonzero;stroke:none"
         id="path144" /><path
         d="m 3013.96,2766.98 61.12,-17.56 1.16,-40.13 -86.8,10.49 24.52,47.2"
         style="fill:#f46b74;fill-opacity:1;fill-rule:nonzero;stroke:none"
         id="path146" /><path
         d="m 3058.5,2659.41 c -0.01,0.01 -0.03,0.02 -0.04,0.02 2.05,2.68 3.87,5.44 5.48,8.22 0,-0.01 0,-0.03 0,-0.04 -1.6,-2.77 -3.4,-5.52 -5.44,-8.2 m 16.99,75.78 -0.41,14.23 -61.1,17.55 0.02,0.05 61.1,-17.61 0.39,-14.22 m -73.39,8.96 c 0,0.02 0,0.04 0,0.06 l 7.17,13.75 -7.17,-13.81"
         style="fill:#babcba;fill-opacity:1;fill-rule:nonzero;stroke:none"
         id="path148" /><path
         d="m 3058.46,2659.43 c -23.77,10.88 -43.09,31.84 -51.66,58.25 l 69.4,-8.39 c 0,-0.08 -0.01,-0.39 -0.04,-0.91 l -17.37,-9.75 c 2.49,-9.95 4.39,-20.52 5.15,-30.98 -1.61,-2.78 -3.43,-5.54 -5.48,-8.22"
         style="fill:#ea5b5b;fill-opacity:1;fill-rule:nonzero;stroke:none"
         id="path150" /><path
         d="m 3076.2,2709.29 -69.4,8.39 c -2.7,8.33 -4.33,17.2 -4.7,26.47 l 7.17,13.81 4.71,9.01 61.1,-17.55 0.41,-14.23 0.71,-25.87 c 0,0 0,-0.01 0,-0.03"
         style="fill:#ea5b5b;fill-opacity:1;fill-rule:nonzero;stroke:none"
         id="path152" /><path
         d="m 3038.14,2886.71 2.27,0.88 c 1.34,1.25 1.43,3.36 0.18,4.71 -12.51,13.54 -27.69,11.13 -28.35,11.03 -1.82,-0.31 -3.04,-2.03 -2.72,-3.85 0.31,-1.81 2.05,-3.02 3.82,-2.73 0.5,0.08 12.37,1.82 22.35,-8.98 l 2.45,-1.06"
         style="fill:#17282f;fill-opacity:1;fill-rule:nonzero;stroke:none"
         id="path154" /><path
         d="m 3165.9,2758.79 c -10.08,-51.47 -16.17,-122.76 19.83,-157.09 0,0 -14.07,-52.2 -109.68,-52.2 -105.14,0 -50.58,45.81 -50.58,45.81 43.7,13.56 43.32,63.34 33.32,103.32 l 107.11,60.16"
         style="fill:#f46b74;fill-opacity:1;fill-rule:nonzero;stroke:none"
         id="path156" /><path
         d="m 3205.42,2567.28 c 9.36,13.26 8.98,55.16 -1.01,62.55 -16.13,11.93 -85.17,14.67 -178.16,-6.71 10.01,-40.58 -11.43,-61.85 -11.43,-61.85 l 190.6,6.01"
         style="fill:#406fbf;fill-opacity:1;fill-rule:nonzero;stroke:none"
         id="path158" /><path
         d="m 3506.51,204.488 -1.96,-0.648 c -1.32,-0.629 -2.15,-1.559 -2.53,-2.84 -0.89,-3 0.22,-3.941 0.59,-4.262 3.78,-3.207 17.82,-0.246 27.72,3.711 -6.71,2.371 -17.57,5.391 -23.82,4.039 z m 11.44,-11.238 c -7.05,-1.531 -14.11,-1.941 -17.51,0.949 -1.42,1.223 -2.86,3.551 -1.61,7.742 0.66,2.207 2.1,3.86 4.29,4.911 9.5,4.527 31.32,-4.36 32.25,-4.743 l 1.03,-1.5 -0.94,-1.55 c -3.34,-1.61 -10.42,-4.278 -17.51,-5.809"
         style="fill:#406fbf;fill-opacity:1;fill-rule:nonzero;stroke:none"
         id="path160" /><path
         d="m 3515.18,223.801 -0.73,-0.211 c -2.06,-0.711 -2.03,-1.719 -2.02,-2.149 0.11,-4.722 11.34,-14.203 19.58,-18.043 -2.06,5.622 -6.76,16.711 -12.78,19.782 -1.38,0.711 -2.71,0.91 -4.05,0.621 z m 19.91,-24.86 -0.82,0.028 c -7.96,2.32 -24.97,14.402 -25.17,22.383 -0.04,1.449 0.46,4.07 4.25,5.386 2.47,0.864 4.95,0.66 7.39,-0.59 9.4,-4.796 15.34,-24.277 15.59,-25.109 l -0.42,-1.648 -0.82,-0.45"
         style="fill:#406fbf;fill-opacity:1;fill-rule:nonzero;stroke:none"
         id="path162" /><path
         d="m 2987.49,195.078 c -1.17,0 -2.26,-0.109 -3.22,-0.379 -1.54,-0.41 -2.6,-1.168 -3.26,-2.328 -1.18,-2.07 -0.75,-3.09 -0.33,-3.68 3.28,-4.55 21.05,-4.652 34.13,-2.8 -6.52,3.339 -19.1,9.187 -27.32,9.187 z m 11.16,-13.629 c -9.03,0 -17.75,1.242 -20.67,5.289 -1.03,1.422 -1.83,3.844 0.14,7.282 1.09,1.941 2.88,3.25 5.27,3.902 11.71,3.18 36.29,-10.82 37.34,-11.422 l 0.81,-1.711 -1.32,-1.367 c -4.49,-0.891 -13.16,-1.973 -21.57,-1.973"
         style="fill:#406fbf;fill-opacity:1;fill-rule:nonzero;stroke:none"
         id="path164" /><path
         d="m 3002.73,211.898 -1,-0.046 c -2.99,-0.301 -3.19,-1.481 -3.25,-1.872 -0.77,-4.769 10.66,-16.73 19.32,-21.941 -0.91,5.543 -3.41,16.871 -9.28,21.699 -1.77,1.453 -3.68,2.16 -5.79,2.16 z m 17.16,-28.519 -0.68,0.16 c -8.49,3.801 -25.3,19.012 -24.02,26.973 0.3,1.867 1.63,4.187 6.21,4.66 3.41,0.34 6.5,-0.621 9.23,-2.863 8.95,-7.348 10.84,-26.297 10.92,-27.098 l -0.69,-1.512 -0.97,-0.32"
         style="fill:#406fbf;fill-opacity:1;fill-rule:nonzero;stroke:none"
         id="path166" /><path
         d="m 3097.24,185.051 h -70.34 l -7.01,162.89 h 70.34 l 7.01,-162.89"
         style="fill:#f46b74;fill-opacity:1;fill-rule:nonzero;stroke:none"
         id="path168" /><path
         d="m 3613.49,217.621 -68.74,-14.879 -69.02,151.707 68.74,14.883 69.02,-151.711"
         style="fill:#f46b74;fill-opacity:1;fill-rule:nonzero;stroke:none"
         id="path170" /><path
         d="m 3538.14,209.629 77.23,16.73 c 2.81,0.602 5.67,-0.82 6.87,-3.429 l 26.81,-58.168 c 2.78,-6.032 -0.91,-13.114 -7.42,-14.403 -27.06,-5.367 -40.5,-6.629 -74.47,-13.98 -20.89,-4.527 -68.06,-16.02 -96.92,-22.258 -28.22,-6.121 -38.8,21.461 -27.54,26.598 50.45,23.062 71.54,43.363 85.2,62.269 2.46,3.41 6.13,5.762 10.24,6.641"
         style="fill:#17282f;fill-opacity:1;fill-rule:nonzero;stroke:none"
         id="path172" /><path
         d="m 3027.36,193.199 h 76.81 c 2.88,0 5.37,-2 6,-4.808 l 13.89,-62.52 c 1.44,-6.473 -3.48,-12.621 -10.12,-12.512 -27.71,0.469 -67.75,2.09 -102.57,2.09 -40.73,0 -75.9,-2.211 -123.65,-2.211 -28.88,0 -36.89,29.192 -24.8,31.832 55.02,12.039 99.95,13.328 147.5,42.649 5.17,3.179 10.87,5.48 16.94,5.48"
         style="fill:#17282f;fill-opacity:1;fill-rule:nonzero;stroke:none"
         id="path174" /><path
         d="m 3311.67,2585.79 c 65.92,-15.11 120.27,-183.4 120.27,-183.4 l -132.38,-100.9 c 0,0 -48.59,45.81 -70.21,129.99 -22.66,88.2 14.91,169.77 82.32,154.31"
         style="fill:#406fbf;fill-opacity:1;fill-rule:nonzero;stroke:none"
         id="path176" /><path
         d="m 3299.56,2301.49 c 0,0 -7.39,6.96 -17.68,20.44 0,0.02 0,0 0,0.02 9.95,-13.03 17.19,-19.99 17.69,-20.46 h -0.01 m 5.31,4.04 0.56,0.44 c -1.69,34.15 -6.67,71.42 -18.4,103.35 4.76,57.68 12.52,117.3 24.64,176.47 v 0 0 c 0,0 -1.99,0.4 -5.61,1.08 1.85,-0.29 3.71,-0.64 5.61,-1.08 65.92,-15.11 120.27,-183.4 120.27,-183.4 l -17.93,-13.67 -85.76,-65.36 -23.38,-17.83"
         style="fill:#2251aa;fill-opacity:1;fill-rule:nonzero;stroke:none"
         id="path178" /><path
         d="m 2965.02,2384.94 c -16.46,-17.75 -32.86,-33.54 -49.85,-49.79 -8.43,-8.07 -17.05,-16 -25.86,-23.76 l -13.28,-11.63 -3.35,-2.89 c -1.62,-1.4 -3.59,-3.04 -5.7,-4.66 -4.4,-3.25 -9.22,-7.04 -19.31,-11.41 -5.36,-2.06 -12.24,-4.78 -24.33,-5.03 -5.75,-0.09 -13.55,0.91 -21,3.73 -7.6,2.82 -14.97,7.7 -20.01,12.72 -10.46,10.51 -13.62,19.73 -15.68,25.9 -1.91,6.36 -2.46,10.9 -2.85,14.87 -0.63,7.76 -0.24,13.02 0.19,17.87 0.47,4.81 1.14,8.96 1.86,12.88 2.94,15.42 7.1,27.85 11.62,40.31 4.57,12.34 9.63,24.17 15.54,36.14 6.34,12.74 12.48,21.98 18.59,32.63 24.7,41.3 53.71,79.02 84.51,114.58 31.48,35.31 64.52,67.59 102.52,97.17 l 36.8,-37.87 c -25.85,-34.58 -51.27,-71.66 -74.77,-108.22 -23.47,-36.83 -45.23,-74.33 -63.98,-112.45 -4.32,-9.42 -9.64,-19.74 -12.65,-27.63 -3.51,-8.6 -6.73,-17.86 -9.37,-26.96 -2.62,-9.01 -4.73,-18.39 -5.68,-25.27 -0.22,-1.66 -0.33,-3.11 -0.33,-3.95 -0.03,-0.77 0.18,-1.19 0.08,0.93 -0.11,1.16 -0.21,2.89 -1.29,6.55 -1.22,3.47 -3.11,10.07 -11.54,18.59 -4.06,4 -10.16,8.17 -16.48,10.43 -6.11,2.39 -12.5,3.1 -16.83,3.08 -9.26,-0.21 -13.38,-2.1 -16.12,-3.08 -4.9,-2.12 -5.01,-2.69 -4.96,-2.47 l 3.84,3.5 12,11 23.91,22.4 c 15.83,14.9 31.74,30.81 46.78,45.56 l 76.98,-73.77"
         style="fill:#f46b74;fill-opacity:1;fill-rule:nonzero;stroke:none"
         id="path180" /><path
         d="m 3299.6,2301.47 c 0,0 -0.01,0 -0.03,0.02 l 5.3,4.04 -5.27,-4.06"
         style="fill:#c3c5c2;fill-opacity:1;fill-rule:nonzero;stroke:none"
         id="path182" /><path
         d="m 3299.57,2301.49 c -0.5,0.47 -7.74,7.43 -17.69,20.46 1.04,28.37 2.7,57.63 5.15,87.37 11.73,-31.93 16.71,-69.2 18.4,-103.35 l -0.56,-0.44 -5.3,-4.04"
         style="fill:#24427c;fill-opacity:1;fill-rule:nonzero;stroke:none"
         id="path184" /><path
         d="m 2895.08,2515.27 c -14.37,-75.99 -23.37,-232.04 18.37,-541.05 h 376.21 c 2.59,57.74 -33.69,339.46 22.01,611.57 0,0 -64.49,12.95 -125.94,15.91 -48.07,2.31 -117.67,3.85 -159.92,-0.01 -17.65,-1.61 -34.96,-4.15 -50.39,-6.88 -40.68,-7.2 -72.66,-38.95 -80.34,-79.54"
         style="fill:#406fbf;fill-opacity:1;fill-rule:nonzero;stroke:none"
         id="path186" /><path
         d="m 3289.66,1974.22 h -376.21 c -18.23,134.91 -26.78,240.68 -29.43,323.34 0.01,0.01 0.03,0.02 0.05,0.03 0.35,-10.81 0.81,-22.03 1.37,-33.65 15.42,17.54 32.93,39.91 46.25,63.81 49.24,34.16 114.65,89.53 114.69,142.77 0,7.28 -1.21,14.53 -3.87,21.67 -18.68,50.36 -29.22,102.1 -67.02,102.1 -1.12,0 -2.26,-0.04 -3.42,-0.14 1.11,0.24 2.22,0.46 3.35,0.66 15.43,2.73 32.74,5.27 50.39,6.88 18.62,1.7 42.55,2.35 67.62,2.35 31.8,0 65.42,-1.05 92.3,-2.34 61.45,-2.96 125.94,-15.91 125.94,-15.91 -12.12,-59.17 -19.88,-118.79 -24.64,-176.47 -2.45,-29.74 -4.11,-59 -5.15,-87.37 0,-0.02 0,0 0,-0.02 -1.03,-28.28 -1.46,-55.73 -1.46,-82 0,-123.05 9.39,-220.48 9.38,-258.8 0,-0.5 0,-1 -0.01,-1.48 -0.01,-1.99 -0.05,-3.8 -0.13,-5.43"
         style="fill:#2251aa;fill-opacity:1;fill-rule:nonzero;stroke:none"
         id="path188" /><path
         d="m 2885.44,2263.94 c -0.56,11.62 -1.02,22.84 -1.37,33.65 8.89,5.09 26.81,15.73 47.62,30.16 -13.32,-23.9 -30.83,-46.27 -46.25,-63.81"
         style="fill:#24427c;fill-opacity:1;fill-rule:nonzero;stroke:none"
         id="path190" /><path
         d="m 3093.88,263.941 h -0.04 l -3.61,83.957 h 0.05 l 3.6,-83.957 m -70.37,0 v 0 l -0.01,0.079 0.01,-0.079"
         style="fill:#c3c5c2;fill-opacity:1;fill-rule:nonzero;stroke:none"
         id="path192" /><path
         d="m 3093.84,263.941 h -70.33 l -0.01,0.079 -3.59,83.878 h 70.32 l 3.61,-83.957"
         style="fill:#ea5b5b;fill-opacity:1;fill-rule:nonzero;stroke:none"
         id="path194" /><path
         d="m 3580.07,291.09 -6.89,15.14 0.04,0.012 6.9,-15.14 -0.05,-0.012"
         style="fill:#c3c5c2;fill-opacity:1;fill-rule:nonzero;stroke:none"
         id="path196" /><path
         d="m 3511.34,276.211 -6.89,15.141 68.73,14.878 6.89,-15.14 -68.73,-14.879"
         style="fill:#ea5b5b;fill-opacity:1;fill-rule:nonzero;stroke:none"
         id="path198" /><path
         d="m 3199.34,2834.06 c -18.07,-67.42 -25.22,-107.8 -66.83,-135.84 -62.59,-42.17 -140.52,6.22 -142.95,77.69 -2.2,64.33 27.72,163.79 100.08,177.38 71.29,13.39 127.77,-51.79 109.7,-119.23"
         style="fill:#f46b74;fill-opacity:1;fill-rule:nonzero;stroke:none"
         id="path200" /><path
         d="m 3041.47,2831.48 c -3.34,9.04 -18.92,78.72 -4.29,96.81 14.63,18.09 181.11,5.08 205.73,-19.15 40.84,-40.19 12.51,-76.06 -32.21,-122.34 -33.62,-34.8 -34.92,-74.03 -51.88,-79.79 -29.72,-10.09 -75.8,-0.6 -85.05,31.12 -9.24,31.73 -32.3,93.35 -32.3,93.35"
         style="fill:#17282f;fill-opacity:1;fill-rule:nonzero;stroke:none"
         id="path202" /><path
         d="m 3222.73,2988.39 c -58.84,25.06 -169.17,-2.66 -228.74,11.71 -2.13,-30.85 16.48,-80.32 76.06,-93.62 0,0 84.57,-16.49 150,-13.83 65.42,2.66 52.66,74.47 2.68,95.74"
         style="fill:#17282f;fill-opacity:1;fill-rule:nonzero;stroke:none"
         id="path204" /><path
         d="m 3231.94,2907 c 0,0 36.39,-4.09 62.23,11.95 11.04,-26.59 -49.45,-33.89 -62.23,-11.95"
         style="fill:#17282f;fill-opacity:1;fill-rule:nonzero;stroke:none"
         id="path206" /><path
         d="m 3073.54,2828.71 c -1.09,-18.25 -9.57,-35.43 -19.76,-46.66 -15.34,-16.89 -31.33,-6.37 -34.05,14.2 -2.45,18.52 2.58,49.63 21.33,58.95 18.47,9.18 33.73,-5.62 32.48,-26.49"
         style="fill:#f46b74;fill-opacity:1;fill-rule:nonzero;stroke:none"
         id="path208" /><path
         d="m 3046.9,1974.22 c 0,0 79.83,-537.54 123.65,-738.92 47.99,-220.52 305.31,-950.14 305.31,-950.14 l 125.91,27.262 c 0,0 -179.93,594.59 -220.21,902.888 -30.94,236.82 -91.9,758.91 -91.9,758.91 H 3046.9"
         style="fill:#406fbf;fill-opacity:1;fill-rule:nonzero;stroke:none"
         id="path210" /><path
         d="m 3445.71,327.199 23.47,-45.527 141.66,30.66 -11.94,42.59 -153.19,-27.723"
         style="fill:#17282f;fill-opacity:1;fill-rule:nonzero;stroke:none"
         id="path212" /><path
         d="m 3168.78,1243.36 c -0.45,2.13 -0.91,4.29 -1.37,6.49 h 0.04 c 0.45,-2.16 0.89,-4.26 1.34,-6.35 -0.01,-0.05 -0.01,-0.1 -0.01,-0.14 m -3.41,16.49 h -0.03 c -2.8,13.64 -5.72,28.4 -8.73,44.07 h 0.02 c 3.01,-15.66 5.94,-30.43 8.74,-44.07 m -10.65,54.07 h -0.01 c -7.09,37.33 -14.63,79.39 -22.31,123.75 7.69,-44.36 15.23,-86.41 22.32,-123.75"
         style="fill:#a4a6a5;fill-opacity:1;fill-rule:nonzero;stroke:none"
         id="path214" /><path
         d="m 3156.63,1303.92 h -0.02 c -0.63,3.29 -1.27,6.63 -1.9,10 h 0.01 c 0.64,-3.37 1.28,-6.71 1.91,-10"
         style="fill:#949696;fill-opacity:1;fill-rule:nonzero;stroke:none"
         id="path216" /><path
         d="m 3167.45,1249.85 h -0.04 c -0.68,3.26 -1.37,6.59 -2.07,10 h 0.03 c 0.7,-3.41 1.39,-6.74 2.08,-10"
         style="fill:#949696;fill-opacity:1;fill-rule:nonzero;stroke:none"
         id="path218" /><path
         d="m 3168.79,1243.5 c -0.45,2.09 -0.89,4.19 -1.34,6.35 -0.69,3.26 -1.38,6.59 -2.08,10 -2.8,13.64 -5.73,28.41 -8.74,44.07 -0.63,3.29 -1.27,6.63 -1.91,10 -7.09,37.34 -14.63,79.39 -22.32,123.75 -19.5,112.67 -39.88,240.14 -55.82,342.53 4.19,2.1 8.75,3.21 13.69,3.21 2.28,0 4.64,-0.23 7.08,-0.72 92.28,-18.09 82.54,-362.12 71.44,-539.19"
         style="fill:#2d5bb2;fill-opacity:1;fill-rule:nonzero;stroke:none"
         id="path220" /><path
         d="m 2913.45,1974.21 c 0,0 -9.69,-525.89 -2.04,-740.39 7.96,-223.11 85.89,-953.621 85.89,-953.621 h 119.15 c 0,0 4.38,717.481 9.68,936.591 5.77,238.87 34.62,757.42 34.62,757.42 h -247.3"
         style="fill:#406fbf;fill-opacity:1;fill-rule:nonzero;stroke:none"
         id="path222" /><path
         d="m 2974.37,327.66 6.72,-49.469 h 144.95 l 3.92,44.149 -155.59,5.32"
         style="fill:#17282f;fill-opacity:1;fill-rule:nonzero;stroke:none"
         id="path224" /><path
         d="m 3042.51,2492.19 c 33.73,-90.89 -164.41,-197.95 -164.41,-197.95 l -85.79,110.29 c 0,0 57.23,113.9 127.47,165.25 86.75,63.42 97.06,-8.39 122.73,-77.59"
         style="fill:#406fbf;fill-opacity:1;fill-rule:nonzero;stroke:none"
         id="path226" /><path
         d="m 2878.1,2294.24 -3.4,4.37 -82.39,105.92 c 0,0 57.23,113.9 127.47,165.25 23.62,17.27 41.57,24.51 55.71,24.51 37.8,0 48.34,-51.74 67.02,-102.1 2.66,-7.14 3.87,-14.39 3.87,-21.67 -0.04,-53.24 -65.45,-108.61 -114.69,-142.77 -20.81,-14.43 -38.73,-25.07 -47.62,-30.16 -0.02,-0.01 -0.04,-0.02 -0.05,-0.03 -3.79,-2.16 -5.92,-3.32 -5.92,-3.32"
         style="fill:#2251aa;fill-opacity:1;fill-rule:nonzero;stroke:none"
         id="path228" /><path
         d="m 4179.61,3412.28 c 0,-127.02 -161.56,-230 -360.86,-230 -199.31,0 -360.87,102.98 -360.87,230 0,127.03 161.56,230 360.87,230 199.3,0 360.86,-102.97 360.86,-230"
         style="fill:#406fbf;fill-opacity:1;fill-rule:nonzero;stroke:none"
         id="path230" /><path
         d="m 3688.89,3451.61 c -3.69,0 -7.41,-0.38 -11.11,-1.14 -14.14,-2.92 -26.3,-11.16 -34.23,-23.2 -7.92,-12.05 -10.69,-26.48 -7.77,-40.65 2.92,-14.13 11.16,-26.28 23.23,-34.22 12.06,-7.94 26.5,-10.7 40.63,-7.78 14.16,2.92 26.32,11.17 34.25,23.23 7.92,12.05 10.67,26.48 7.75,40.62 -2.93,14.17 -11.16,26.34 -23.2,34.26 -8.9,5.85 -19.11,8.88 -29.55,8.88 z m -0.3,-118.13 c -12.38,0 -24.49,3.6 -35.07,10.56 -14.3,9.41 -24.08,23.81 -27.52,40.56 -3.47,16.78 -0.2,33.89 9.21,48.17 9.4,14.27 23.8,24.04 40.56,27.5 16.78,3.46 33.89,0.2 48.17,-9.19 14.26,-9.38 24.03,-23.8 27.49,-40.59 3.46,-16.76 0.2,-33.85 -9.18,-48.13 -9.4,-14.3 -23.81,-24.08 -40.6,-27.54 -4.35,-0.9 -8.72,-1.34 -13.06,-1.34 z m -20.11,152.86 c -46.39,-10.54 -77.54,-57.28 -69.44,-104.2 4.23,-24.54 17.88,-45.76 38.43,-59.77 20.55,-14 45.27,-18.96 69.64,-13.93 38.65,7.98 67.62,39.68 72.06,78.88 l 0.41,3.6 80.85,16.69 c 4.67,0.96 9.5,-0.17 13.25,-3.11 3.75,-2.93 6.01,-7.34 6.2,-12.09 l 0.46,-11.37 c 0.11,-2.88 2.16,-5.34 4.76,-5.73 8.9,-1.33 16.59,-6.54 21.1,-14.3 1.1,-1.9 3.19,-3.73 5.88,-3.18 l 4.67,0.96 c 2.64,0.55 3.88,3.07 4.14,5.25 1.49,12.57 10.87,22.74 23.33,25.31 12.42,2.56 25.01,-3.08 31.35,-14.02 1.1,-1.9 3.18,-3.76 5.87,-3.19 l 4.77,0.99 c 2.65,0.54 3.87,3.06 4.11,5.23 1.05,8.92 6.02,16.74 13.64,21.48 2.24,1.39 3.14,4.46 2.1,7.14 l -4.08,10.63 c -1.71,4.44 -1.37,9.39 0.91,13.57 2.29,4.18 6.27,7.12 10.94,8.08 l 6.08,1.26 c 6.76,1.39 12.48,5.39 16.13,11.25 3.64,5.86 4.67,12.78 2.92,19.48 -3.3,12.59 -17.12,20.54 -30.78,17.7 l -238.69,-49.26 -1.79,3.14 c -20.02,34.95 -59.84,52.47 -99.22,43.51 z m 19.98,-189.82 c -20.05,0 -39.62,6 -56.62,17.59 -22.81,15.53 -37.95,39.09 -42.66,66.34 -8.98,52.07 25.6,103.94 77.09,115.65 42.4,9.61 85.46,-8.46 108.23,-45.17 l 231.67,47.82 c 18.77,3.87 37.84,-7.32 42.46,-24.97 2.45,-9.39 1,-19.07 -4.1,-27.28 -5.11,-8.22 -13.12,-13.82 -22.6,-15.77 l -6.08,-1.26 c -1.82,-0.37 -3.3,-1.47 -4.18,-3.09 -0.88,-1.59 -1.01,-3.49 -0.35,-5.19 l 4.08,-10.62 c 2.77,-7.19 0.19,-15.28 -6.16,-19.23 -4.94,-3.07 -8.3,-8.36 -8.98,-14.14 -0.82,-7.08 -5.54,-12.53 -12.04,-13.87 l -4.76,-0.98 c -6.48,-1.32 -12.97,1.78 -16.55,7.96 -4.18,7.22 -12.48,10.94 -20.68,9.24 -8.23,-1.7 -14.42,-8.41 -15.42,-16.69 -0.85,-7.09 -5.58,-12.53 -12.05,-13.86 l -4.67,-0.96 c -6.4,-1.33 -12.97,1.78 -16.54,7.95 -2.93,5.04 -8.13,8.56 -13.92,9.43 -7.39,1.1 -12.98,7.5 -13.29,15.22 l -0.46,11.37 c -0.07,1.84 -0.91,3.49 -2.36,4.62 -1.45,1.14 -3.19,1.55 -5.07,1.18 l -73.82,-15.24 c -6.26,-41.83 -37.79,-75.32 -79.51,-83.93 -6.88,-1.42 -13.8,-2.12 -20.66,-2.12"
         style="fill:#ffffff;fill-opacity:1;fill-rule:nonzero;stroke:none"
         id="path232" /><path
         d="m 3524.95,3047.44 c -65.5,0 -118.61,33.85 -118.61,75.6 0,41.75 53.11,75.59 118.61,75.59 65.51,0 118.61,-33.84 118.61,-75.59 0,-41.75 -53.1,-75.6 -118.61,-75.6"
         style="fill:#7da6dd;fill-opacity:1;fill-rule:nonzero;stroke:none"
         id="path234" /><path
         d="m 3336.29,3016.41 c -6.26,0 -12.25,0.75 -17.75,2.13 l 21.96,59.82 c 24.92,-1.36 44.48,-14.68 44.48,-30.92 0,-17.14 -21.8,-31.03 -48.69,-31.03"
         style="fill:#b8d2ef;fill-opacity:1;fill-rule:nonzero;stroke:none"
         id="path236" /><path
         d="m 3318.54,3018.54 c -18.11,4.51 -30.94,15.75 -30.94,28.9 0,17.14 21.8,31.03 48.69,31.03 1.42,0 2.82,-0.04 4.21,-0.11 l -21.96,-59.82"
         style="fill:#b0caec;fill-opacity:1;fill-rule:nonzero;stroke:none"
         id="path238" /></g></g></svg>
